<svg xmlns="http://www.w3.org/2000/svg" width="820" height="620" viewBox="0 0 820 620">
<rect width="100%" height="100%" fill="white"/>
<text x="410" y="28" text-anchor="middle" font-family="sans-serif" font-size="20">Tier 0 ROC: obvious OK</text>
<line x1="90.0" y1="50" x2="90.0" y2="550" stroke="#e5e7eb"/>
<line x1="90" y1="550.0" x2="750" y2="550.0" stroke="#e5e7eb"/>
<text x="90.0" y="574.0" text-anchor="middle" font-family="sans-serif" font-size="11">0.0</text>
<text x="76.0" y="554.0" text-anchor="end" font-family="sans-serif" font-size="11">0.0</text>
<line x1="156.0" y1="50" x2="156.0" y2="550" stroke="#e5e7eb"/>
<line x1="90" y1="500.0" x2="750" y2="500.0" stroke="#e5e7eb"/>
<text x="156.0" y="574.0" text-anchor="middle" font-family="sans-serif" font-size="11">0.1</text>
<text x="76.0" y="504.0" text-anchor="end" font-family="sans-serif" font-size="11">0.1</text>
<line x1="222.0" y1="50" x2="222.0" y2="550" stroke="#e5e7eb"/>
<line x1="90" y1="450.0" x2="750" y2="450.0" stroke="#e5e7eb"/>
<text x="222.0" y="574.0" text-anchor="middle" font-family="sans-serif" font-size="11">0.2</text>
<text x="76.0" y="454.0" text-anchor="end" font-family="sans-serif" font-size="11">0.2</text>
<line x1="288.0" y1="50" x2="288.0" y2="550" stroke="#e5e7eb"/>
<line x1="90" y1="400.0" x2="750" y2="400.0" stroke="#e5e7eb"/>
<text x="288.0" y="574.0" text-anchor="middle" font-family="sans-serif" font-size="11">0.3</text>
<text x="76.0" y="404.0" text-anchor="end" font-family="sans-serif" font-size="11">0.3</text>
<line x1="354.0" y1="50" x2="354.0" y2="550" stroke="#e5e7eb"/>
<line x1="90" y1="350.0" x2="750" y2="350.0" stroke="#e5e7eb"/>
<text x="354.0" y="574.0" text-anchor="middle" font-family="sans-serif" font-size="11">0.4</text>
<text x="76.0" y="354.0" text-anchor="end" font-family="sans-serif" font-size="11">0.4</text>
<line x1="420.0" y1="50" x2="420.0" y2="550" stroke="#e5e7eb"/>
<line x1="90" y1="300.0" x2="750" y2="300.0" stroke="#e5e7eb"/>
<text x="420.0" y="574.0" text-anchor="middle" font-family="sans-serif" font-size="11">0.5</text>
<text x="76.0" y="304.0" text-anchor="end" font-family="sans-serif" font-size="11">0.5</text>
<line x1="486.0" y1="50" x2="486.0" y2="550" stroke="#e5e7eb"/>
<line x1="90" y1="250.0" x2="750" y2="250.0" stroke="#e5e7eb"/>
<text x="486.0" y="574.0" text-anchor="middle" font-family="sans-serif" font-size="11">0.6</text>
<text x="76.0" y="254.0" text-anchor="end" font-family="sans-serif" font-size="11">0.6</text>
<line x1="552.0" y1="50" x2="552.0" y2="550" stroke="#e5e7eb"/>
<line x1="90" y1="200.0" x2="750" y2="200.0" stroke="#e5e7eb"/>
<text x="552.0" y="574.0" text-anchor="middle" font-family="sans-serif" font-size="11">0.7</text>
<text x="76.0" y="204.0" text-anchor="end" font-family="sans-serif" font-size="11">0.7</text>
<line x1="618.0" y1="50" x2="618.0" y2="550" stroke="#e5e7eb"/>
<line x1="90" y1="150.0" x2="750" y2="150.0" stroke="#e5e7eb"/>
<text x="618.0" y="574.0" text-anchor="middle" font-family="sans-serif" font-size="11">0.8</text>
<text x="76.0" y="154.0" text-anchor="end" font-family="sans-serif" font-size="11">0.8</text>
<line x1="684.0" y1="50" x2="684.0" y2="550" stroke="#e5e7eb"/>
<line x1="90" y1="100.0" x2="750" y2="100.0" stroke="#e5e7eb"/>
<text x="684.0" y="574.0" text-anchor="middle" font-family="sans-serif" font-size="11">0.9</text>
<text x="76.0" y="104.0" text-anchor="end" font-family="sans-serif" font-size="11">0.9</text>
<line x1="750.0" y1="50" x2="750.0" y2="550" stroke="#e5e7eb"/>
<line x1="90" y1="50.0" x2="750" y2="50.0" stroke="#e5e7eb"/>
<text x="750.0" y="574.0" text-anchor="middle" font-family="sans-serif" font-size="11">1.0</text>
<text x="76.0" y="54.0" text-anchor="end" font-family="sans-serif" font-size="11">1.0</text>
<line x1="123.0" y1="50" x2="123.0" y2="550" stroke="#94a3b8" stroke-dasharray="2 4"/>
<line x1="156.0" y1="50" x2="156.0" y2="550" stroke="#94a3b8" stroke-dasharray="2 4"/>
<line x1="189.0" y1="50" x2="189.0" y2="550" stroke="#94a3b8" stroke-dasharray="2 4"/>
<line x1="222.0" y1="50" x2="222.0" y2="550" stroke="#94a3b8" stroke-dasharray="2 4"/>
<line x1="288.0" y1="50" x2="288.0" y2="550" stroke="#94a3b8" stroke-dasharray="2 4"/>
<line x1="90" y1="550" x2="750" y2="50" stroke="#9ca3af" stroke-dasharray="5 5"/>
<line x1="90" y1="550" x2="750" y2="550" stroke="#111827"/>
<line x1="90" y1="50" x2="90" y2="550" stroke="#111827"/>
<text x="420.0" y="605" text-anchor="middle" font-family="sans-serif" font-size="14">False Positive Rate</text>
<text x="22" y="300.0" text-anchor="middle" transform="rotate(-90 22 300.0)" font-family="sans-serif" font-size="14">Obvious OK Recall</text>
<polyline points="90.0,550.0 95.5,550.0 95.5,543.8 106.5,543.8 112.0,543.8 117.5,543.8 123.0,543.8 128.5,543.8 134.0,543.8 139.5,543.8 145.0,543.8 150.5,543.8 156.0,537.5 205.5,525.0 211.0,525.0 216.5,525.0 222.0,525.0 233.0,525.0 238.5,518.8 255.0,518.8 260.5,518.8 266.0,518.8 271.5,518.8 277.0,518.8 277.0,512.5 282.5,512.5 288.0,512.5 293.5,512.5 293.5,506.2 293.5,500.0 293.5,493.8 304.5,493.8 304.5,487.5 315.5,481.2 315.5,475.0 315.5,468.8 315.5,462.5 321.0,462.5 326.5,462.5 332.0,462.5 337.5,462.5 343.0,462.5 354.0,462.5 359.5,462.5 365.0,462.5 370.5,462.5 739.0,62.5 744.5,62.5 750.0,62.5 750.0,56.2 750.0,50.0" fill="none" stroke="#d97706" stroke-width="3"/>
<circle cx="95.5" cy="543.8" r="4" fill="white" stroke="#d97706" stroke-width="2"/>
<circle cx="156.0" cy="537.5" r="4" fill="white" stroke="#d97706" stroke-width="2"/>
<circle cx="156.0" cy="537.5" r="4" fill="white" stroke="#d97706" stroke-width="2"/>
<circle cx="205.5" cy="525.0" r="4" fill="white" stroke="#d97706" stroke-width="2"/>
<circle cx="277.0" cy="512.5" r="4" fill="white" stroke="#d97706" stroke-width="2"/>
<line x1="570" y1="75" x2="610" y2="75" stroke="#d97706" stroke-width="3"/>
<text x="620" y="80" font-family="sans-serif" font-size="13">hash AUC=0.368</text>
<polyline points="90.0,550.0 90.0,543.8 90.0,537.5 95.5,537.5 95.5,531.2 95.5,525.0 95.5,518.8 95.5,512.5 101.0,512.5 106.5,512.5 106.5,506.2 106.5,500.0 112.0,500.0 117.5,500.0 117.5,493.8 117.5,487.5 123.0,487.5 123.0,481.2 128.5,481.2 128.5,475.0 134.0,475.0 134.0,468.8 139.5,468.8 145.0,468.8 145.0,462.5 145.0,456.2 150.5,456.2 150.5,450.0 150.5,443.8 150.5,437.5 156.0,437.5 156.0,431.2 161.5,431.2 167.0,431.2 172.5,431.2 172.5,425.0 172.5,418.8 178.0,418.8 178.0,412.5 183.5,412.5 183.5,406.2 183.5,400.0 183.5,393.8 183.5,387.5 189.0,387.5 194.5,387.5 194.5,381.2 194.5,375.0 200.0,375.0 205.5,375.0 211.0,375.0 211.0,368.8 216.5,368.8 222.0,368.8 222.0,362.5 222.0,356.2 227.5,356.2 227.5,350.0 227.5,343.8 227.5,337.5 227.5,331.2 227.5,325.0 233.0,325.0 238.5,325.0 238.5,318.8 238.5,312.5 244.0,312.5 249.5,312.5 255.0,312.5 255.0,306.2 260.5,306.2 260.5,300.0 266.0,300.0 271.5,300.0 277.0,300.0 282.5,300.0 282.5,293.8 288.0,293.8 288.0,287.5 288.0,281.2 288.0,275.0 288.0,268.8 293.5,268.8 293.5,262.5 293.5,256.2 299.0,256.2 304.5,256.2 310.0,256.2 315.5,256.2 321.0,256.2 326.5,256.2 326.5,250.0 326.5,243.7 332.0,243.7 332.0,237.5 337.5,237.5 337.5,231.3 337.5,225.0 343.0,225.0 343.0,218.8 343.0,212.5 343.0,206.2 343.0,200.0 343.0,193.8 343.0,187.5 343.0,181.2 348.5,181.2 348.5,175.0 354.0,175.0 354.0,168.8 354.0,162.5 354.0,156.2 359.5,156.2 359.5,150.0 365.0,150.0 365.0,143.8 365.0,137.5 370.5,137.5 370.5,131.2 376.0,131.2 376.0,125.0 376.0,118.7 381.5,118.7 387.0,118.7 392.5,118.7 398.0,118.7 398.0,112.5 403.5,112.5 409.0,112.5 414.5,112.5 420.0,112.5 420.0,106.3 425.5,106.3 431.0,106.3 431.0,100.0 436.5,100.0 442.0,100.0 442.0,93.8 447.5,93.8 453.0,93.8 458.5,93.8 464.0,93.8 469.5,93.8 469.5,87.5 475.0,87.5 480.5,87.5 486.0,87.5 491.5,87.5 497.0,87.5 502.5,87.5 508.0,87.5 513.5,87.5 513.5,81.2 519.0,81.2 524.5,81.2 530.0,81.2 535.5,81.2 541.0,81.2 546.5,81.2 552.0,81.2 552.0,75.0 557.5,75.0 563.0,75.0 563.0,68.7 568.5,68.7 568.5,62.5 574.0,62.5 579.5,62.5 585.0,62.5 590.5,62.5 596.0,62.5 596.0,56.2 601.5,56.2 607.0,56.2 607.0,50.0 612.5,50.0 618.0,50.0 623.5,50.0 629.0,50.0 634.5,50.0 640.0,50.0 645.5,50.0 651.0,50.0 656.5,50.0 662.0,50.0 667.5,50.0 673.0,50.0 678.5,50.0 684.0,50.0 689.5,50.0 695.0,50.0 700.5,50.0 706.0,50.0 711.5,50.0 717.0,50.0 722.5,50.0 728.0,50.0 733.5,50.0 739.0,50.0 744.5,50.0 750.0,50.0" fill="none" stroke="#059669" stroke-width="3"/>
<circle cx="123.0" cy="481.2" r="4" fill="white" stroke="#059669" stroke-width="2"/>
<circle cx="156.0" cy="431.2" r="4" fill="white" stroke="#059669" stroke-width="2"/>
<circle cx="183.5" cy="387.5" r="4" fill="white" stroke="#059669" stroke-width="2"/>
<circle cx="222.0" cy="356.2" r="4" fill="white" stroke="#059669" stroke-width="2"/>
<circle cx="288.0" cy="268.8" r="4" fill="white" stroke="#059669" stroke-width="2"/>
<line x1="570" y1="101" x2="610" y2="101" stroke="#059669" stroke-width="3"/>
<text x="620" y="106" font-family="sans-serif" font-size="13">onnx AUC=0.720</text>
</svg>